<mxfile host="app.diagrams.net" modified="2021-08-17T12:36:42.775Z" agent="5.0 (X11; CrOS x86_64 13982.69.0) AppleWebKit/537.36 (KHTML, like Gecko) Chrome/92.0.4515.130 Safari/537.36" etag="3h9Gkf_xWwex_gXUR-it" version="14.9.7" type="github">
  <diagram id="R0P0jk8W3eX0sR2WrKLu" name="Page-1">
    <mxGraphModel dx="898" dy="610" grid="1" gridSize="10" guides="1" tooltips="1" connect="1" arrows="1" fold="1" page="0" pageScale="1" pageWidth="850" pageHeight="1100" background="#DAD2D8" math="0" shadow="0">
      <root>
        <mxCell id="0" />
        <mxCell id="1" parent="0" />
        <mxCell id="xowOyP4QKrm03nZHnSHo-1" style="edgeStyle=orthogonalEdgeStyle;curved=0;rounded=1;sketch=0;orthogonalLoop=1;jettySize=auto;html=1;exitX=0.5;exitY=1;exitDx=0;exitDy=0;entryX=0.5;entryY=0;entryDx=0;entryDy=0;fontColor=#143642;strokeColor=#A8201A;fillColor=#FAE5C7;labelBackgroundColor=#DAD2D8;" edge="1" parent="1" source="xowOyP4QKrm03nZHnSHo-3" target="xowOyP4QKrm03nZHnSHo-7">
          <mxGeometry relative="1" as="geometry" />
        </mxCell>
        <mxCell id="xowOyP4QKrm03nZHnSHo-2" style="edgeStyle=orthogonalEdgeStyle;curved=0;rounded=1;sketch=0;orthogonalLoop=1;jettySize=auto;html=1;exitX=0.5;exitY=1;exitDx=0;exitDy=0;entryX=0.5;entryY=0;entryDx=0;entryDy=0;fontColor=#143642;strokeColor=#A8201A;fillColor=#FAE5C7;labelBackgroundColor=#DAD2D8;" edge="1" parent="1" source="xowOyP4QKrm03nZHnSHo-3" target="xowOyP4QKrm03nZHnSHo-4">
          <mxGeometry relative="1" as="geometry" />
        </mxCell>
        <mxCell id="xowOyP4QKrm03nZHnSHo-3" value="&lt;b&gt;Engine&lt;/b&gt;&lt;br&gt;FPS, speed, etc" style="rounded=1;whiteSpace=wrap;html=1;fillColor=#FAE5C7;strokeColor=#0F8B8D;fontColor=#143642;" vertex="1" parent="1">
          <mxGeometry x="320" y="120" width="120" height="60" as="geometry" />
        </mxCell>
        <mxCell id="xowOyP4QKrm03nZHnSHo-4" value="&lt;b&gt;Display&lt;/b&gt;&lt;br&gt;Render function&lt;br&gt;Scaling / Resize" style="rounded=1;whiteSpace=wrap;html=1;fillColor=#FAE5C7;strokeColor=#0F8B8D;fontColor=#143642;" vertex="1" parent="1">
          <mxGeometry x="240" y="240" width="120" height="60" as="geometry" />
        </mxCell>
        <mxCell id="xowOyP4QKrm03nZHnSHo-5" style="edgeStyle=orthogonalEdgeStyle;curved=0;rounded=1;sketch=0;orthogonalLoop=1;jettySize=auto;html=1;exitX=0;exitY=0.5;exitDx=0;exitDy=0;entryX=1;entryY=0.5;entryDx=0;entryDy=0;fontColor=#143642;strokeColor=#A8201A;fillColor=#FAE5C7;labelBackgroundColor=#DAD2D8;" edge="1" parent="1" source="xowOyP4QKrm03nZHnSHo-6" target="xowOyP4QKrm03nZHnSHo-7">
          <mxGeometry relative="1" as="geometry" />
        </mxCell>
        <mxCell id="xowOyP4QKrm03nZHnSHo-6" value="&lt;b&gt;Input&lt;/b&gt;&lt;br&gt;Keyboard&lt;br&gt;Touch &amp;amp; Gamepad&lt;br&gt;Resize" style="rounded=1;whiteSpace=wrap;html=1;fillColor=#FAE5C7;strokeColor=#0F8B8D;fontColor=#143642;" vertex="1" parent="1">
          <mxGeometry x="560" y="240" width="120" height="60" as="geometry" />
        </mxCell>
        <mxCell id="xowOyP4QKrm03nZHnSHo-7" value="&lt;b&gt;Main logic&lt;/b&gt;&lt;br&gt;Update function" style="rounded=1;whiteSpace=wrap;html=1;sketch=0;fontColor=#143642;strokeColor=#0F8B8D;fillColor=#FAE5C7;" vertex="1" parent="1">
          <mxGeometry x="400" y="240" width="120" height="60" as="geometry" />
        </mxCell>
        <mxCell id="xowOyP4QKrm03nZHnSHo-8" style="edgeStyle=orthogonalEdgeStyle;curved=0;rounded=1;sketch=0;orthogonalLoop=1;jettySize=auto;html=1;exitX=0.5;exitY=1;exitDx=0;exitDy=0;entryX=0.5;entryY=0;entryDx=0;entryDy=0;fontColor=#143642;fillColor=#FAE5C7;dashed=1;labelBackgroundColor=#DAD2D8;strokeColor=#A8201A;" edge="1" parent="1" source="xowOyP4QKrm03nZHnSHo-9" target="xowOyP4QKrm03nZHnSHo-3">
          <mxGeometry relative="1" as="geometry" />
        </mxCell>
        <mxCell id="xowOyP4QKrm03nZHnSHo-9" value="&lt;b&gt;Setup&lt;/b&gt;&lt;br&gt;Initialize variables&lt;br&gt;Load assets&lt;br&gt;Start engine" style="rounded=1;whiteSpace=wrap;html=1;sketch=0;fontColor=#143642;strokeColor=#0F8B8D;fillColor=#FAE5C7;" vertex="1" parent="1">
          <mxGeometry x="320" y="20" width="120" height="60" as="geometry" />
        </mxCell>
        <mxCell id="xowOyP4QKrm03nZHnSHo-10" value="&lt;b&gt;The idea is to try to make all modules as independent as possible&lt;/b&gt;" style="text;html=1;strokeColor=none;fillColor=none;align=center;verticalAlign=middle;whiteSpace=wrap;rounded=0;sketch=0;fontColor=#143642;" vertex="1" parent="1">
          <mxGeometry x="335" y="320" width="250" height="60" as="geometry" />
        </mxCell>
      </root>
    </mxGraphModel>
  </diagram>
</mxfile>
